<?xml version="1.0" encoding="UTF-8" standalone="no"?><!DOCTYPE svg PUBLIC "-//W3C//DTD SVG 1.1//EN" "http://www.w3.org/Graphics/SVG/1.1/DTD/svg11.dtd"><svg width="100%" height="100%" viewBox="0 0 1208 615" version="1.1" xmlns="http://www.w3.org/2000/svg" xmlns:xlink="http://www.w3.org/1999/xlink" xml:space="preserve" xmlns:serif="http://www.serif.com/" style="fill-rule:evenodd;clip-rule:evenodd;stroke-miterlimit:3.864;"><path d="M272.408,55.642l4.17,247.892l-220.935,-127.557l216.765,-120.335Z" style="fill:url(#_Radial1);fill-rule:nonzero;stroke:#fff;stroke-width:1.46px;"/><path d="M59.81,423.872l216.767,-120.337l-220.935,-127.557l4.168,247.894Z" style="fill:url(#_Radial2);fill-rule:nonzero;stroke:#fff;stroke-width:1.46px;"/><path d="M276.579,303.535l216.766,-120.336l-220.935,-127.557l4.169,247.893Z" style="fill:url(#_Radial3);fill-rule:nonzero;stroke:#fff;stroke-width:1.46px;"/><path d="M276.578,303.534l-47.452,-82.19" style="fill:none;fill-rule:nonzero;stroke:#fff;stroke-width:1.5px;"/><path d="M55.643,175.979l47.452,82.19" style="fill:none;fill-rule:nonzero;stroke:#fff;stroke-width:1.5px;"/><path d="M710.116,62.864l4.169,247.893l-220.937,-127.557l216.768,-120.336Z" style="fill:url(#_Radial4);fill-rule:nonzero;stroke:#fff;stroke-width:1.46px;"/><path d="M714.285,310.759l4.171,247.894l-220.936,-127.558l216.765,-120.336Z" style="fill:#ffe82a;fill-rule:nonzero;stroke:#fff;stroke-width:1.46px;"/><path d="M931.054,190.422l4.17,247.895l-220.937,-127.558l216.767,-120.337Z" style="fill:url(#_Radial5);fill-rule:nonzero;stroke:#fff;stroke-width:1.46px;"/><path d="M935.224,438.319l216.768,-120.336l-220.937,-127.559l4.169,247.895Z" style="fill:url(#_Radial6);fill-rule:nonzero;stroke:#fff;stroke-width:1.46px;"/><path d="M272.41,55.642l47.452,82.189" style="fill:none;fill-rule:nonzero;stroke:#fff;stroke-width:1.5px;"/><path d="M303.154,257.509c25.419,14.676 34.13,47.181 19.454,72.601c-14.677,25.421 -47.182,34.129 -72.602,19.453c-25.419,-14.676 -34.13,-47.18 -19.453,-72.601c14.676,-25.42 47.181,-34.129 72.601,-19.453" style="fill:#c00;"/><path d="M303.154,257.509c-25.404,-14.666 -57.935,-5.95 -72.601,19.453c-14.667,25.403 -5.95,57.935 19.453,72.601c25.404,14.667 57.935,5.95 72.602,-19.453c14.666,-25.403 5.949,-57.934 -19.454,-72.601Z" style="fill:none;stroke:#fff;stroke-width:1.25px;"/><path d="M82.216,129.951c25.419,14.676 34.129,47.18 19.453,72.599c-14.677,25.421 -47.181,34.131 -72.6,19.455c-25.42,-14.676 -34.131,-47.181 -19.454,-72.602c14.676,-25.419 47.181,-34.128 72.601,-19.452" style="fill:#c00;"/><path d="M82.215,129.951c-25.403,-14.667 -57.934,-5.95 -72.6,19.453c-14.667,25.403 -5.95,57.934 19.453,72.6c25.403,14.667 57.934,5.95 72.6,-19.453c14.667,-25.403 5.95,-57.934 -19.453,-72.6Z" style="fill:none;stroke:#fff;stroke-width:1.25px;"/><path d="M493.348,183.2l94.906,0" style="fill:none;fill-rule:nonzero;stroke:#fff;stroke-width:1.5px;stroke-dasharray:4.5,4.5;"/><path d="M298.984,9.615c25.419,14.676 34.13,47.181 19.453,72.601c-14.676,25.42 -47.181,34.129 -72.6,19.453c-25.42,-14.676 -34.131,-47.181 -19.455,-72.601c14.677,-25.42 47.182,-34.129 72.602,-19.453" style="fill:#c00;"/><path d="M298.984,9.615c-25.403,-14.667 -57.935,-5.95 -72.601,19.453c-14.667,25.403 -5.95,57.934 19.454,72.601c25.403,14.666 57.934,5.95 72.601,-19.453c14.666,-25.403 5.949,-57.934 -19.454,-72.601Z" style="fill:none;stroke:#fff;stroke-width:1.25px;"/><path d="M710.116,62.864l-42.909,74.324" style="fill:none;fill-rule:nonzero;stroke:#fff;stroke-width:1.5px;stroke-dasharray:1.5,1.5;"/><path d="M13.784,397.299c14.677,-25.421 47.182,-34.13 72.602,-19.454c25.419,14.676 34.13,47.181 19.453,72.602c-14.676,25.42 -47.181,34.128 -72.6,19.452c-25.42,-14.676 -34.131,-47.18 -19.455,-72.6" style="fill:#c00;"/><path d="M13.785,397.298c-14.667,25.403 -5.95,57.935 19.454,72.601c25.403,14.667 57.934,5.95 72.601,-19.453c14.666,-25.403 5.949,-57.934 -19.454,-72.601c-25.403,-14.666 -57.935,-5.95 -72.601,19.453Z" style="fill:none;stroke:#fff;stroke-width:1.25px;"/><path d="M664.091,36.291c14.676,-25.419 47.179,-34.13 72.6,-19.453c25.421,14.677 34.13,47.181 19.454,72.6c-14.677,25.421 -47.181,34.131 -72.601,19.454c-25.421,-14.677 -34.129,-47.18 -19.453,-72.601" style="fill:#66f;"/><path d="M664.091,36.292c-14.666,25.403 -5.95,57.934 19.453,72.6c25.403,14.667 57.934,5.95 72.601,-19.453c14.666,-25.403 5.949,-57.934 -19.454,-72.6c-25.402,-14.667 -57.934,-5.95 -72.6,19.453Z" style="fill:none;stroke:#fff;stroke-width:1.25px;"/><path d="M447.321,156.628c14.677,-25.421 47.181,-34.131 72.601,-19.455c25.42,14.677 34.13,47.181 19.453,72.602c-14.676,25.42 -47.18,34.129 -72.601,19.452c-25.419,-14.676 -34.129,-47.18 -19.453,-72.599" style="fill:#66f;"/><path d="M447.322,156.627c-14.667,25.403 -5.95,57.934 19.453,72.601c25.403,14.666 57.934,5.949 72.6,-19.454c14.667,-25.403 5.95,-57.934 -19.453,-72.6c-25.403,-14.667 -57.934,-5.95 -72.6,19.453Z" style="fill:none;stroke:#fff;stroke-width:1.25px;"/><path d="M718.456,558.653l-47.452,-82.19" style="fill:none;fill-rule:nonzero;stroke:#fff;stroke-width:3px;"/><path d="M451.493,404.522c14.676,-25.42 47.179,-34.13 72.6,-19.453c25.421,14.676 34.13,47.18 19.454,72.6c-14.677,25.422 -47.181,34.13 -72.601,19.453c-25.421,-14.676 -34.13,-47.178 -19.453,-72.6" style="fill:#66f;"/><path d="M451.493,404.522c-14.666,25.403 -5.95,57.934 19.453,72.601c25.403,14.666 57.934,5.949 72.601,-19.453c14.666,-25.403 5.949,-57.935 -19.454,-72.601c-25.402,-14.666 -57.934,-5.95 -72.6,19.453Z" style="fill:none;stroke:#fff;stroke-width:1.25px;"/><path d="M672.432,532.081c14.676,-25.42 47.179,-34.13 72.599,-19.454c25.422,14.678 34.13,47.181 19.454,72.6c-14.678,25.423 -47.179,34.131 -72.602,19.454c-25.419,-14.676 -34.128,-47.178 -19.451,-72.6" style="fill:#66f;"/><path d="M672.432,532.082c-14.666,25.402 -5.95,57.934 19.453,72.6c25.402,14.666 57.933,5.949 72.599,-19.454c14.667,-25.403 5.95,-57.934 -19.452,-72.6c-25.403,-14.666 -57.934,-5.949 -72.6,19.454Z" style="fill:none;stroke:#fff;stroke-width:1.25px;"/><path d="M714.287,310.759l94.906,0" style="fill:none;fill-rule:nonzero;stroke:#fff;stroke-width:1.5px;"/><path d="M668.26,284.187c14.677,-25.421 47.181,-34.13 72.601,-19.454c25.421,14.676 34.13,47.18 19.453,72.601c-14.676,25.42 -47.18,34.129 -72.601,19.452c-25.419,-14.676 -34.129,-47.179 -19.453,-72.599" style="fill:#090;"/><path d="M668.261,284.186c-14.667,25.403 -5.95,57.934 19.453,72.601c25.403,14.666 57.934,5.949 72.601,-19.453c14.666,-25.403 5.949,-57.935 -19.454,-72.601c-25.403,-14.666 -57.934,-5.95 -72.6,19.453Z" style="fill:none;stroke:#fff;stroke-width:1.25px;"/><path d="M935.225,438.317l42.521,-73.651" style="fill:none;fill-rule:nonzero;stroke:#fff;stroke-width:1.5px;"/><path d="M889.2,411.746c14.676,-25.421 47.18,-34.13 72.6,-19.454c25.421,14.677 34.13,47.181 19.453,72.601c-14.676,25.42 -47.18,34.129 -72.6,19.453c-25.42,-14.676 -34.129,-47.18 -19.453,-72.6" style="fill:#090;"/><path d="M889.2,411.746c-14.666,25.402 -5.95,57.934 19.453,72.6c25.403,14.666 57.934,5.95 72.601,-19.453c14.666,-25.403 5.949,-57.934 -19.454,-72.601c-25.402,-14.666 -57.934,-5.949 -72.6,19.454Z" style="fill:none;stroke:#fff;stroke-width:1.25px;"/><path d="M885.03,163.85c14.676,-25.419 47.179,-34.129 72.599,-19.453c25.422,14.677 34.13,47.18 19.454,72.6c-14.677,25.421 -47.179,34.131 -72.602,19.453c-25.419,-14.676 -34.127,-47.179 -19.451,-72.6" style="fill:#090;"/><path d="M885.03,163.851c-14.666,25.403 -5.95,57.934 19.453,72.6c25.402,14.666 57.933,5.949 72.599,-19.453c14.667,-25.403 5.95,-57.934 -19.452,-72.601c-25.403,-14.666 -57.934,-5.949 -72.6,19.454Z" style="fill:none;stroke:#fff;stroke-width:1.25px;"/><path d="M1105.97,291.409c14.676,-25.42 47.18,-34.129 72.6,-19.453c25.421,14.677 34.13,47.181 19.454,72.6c-14.677,25.421 -47.181,34.13 -72.602,19.454c-25.419,-14.676 -34.129,-47.18 -19.452,-72.601" style="fill:#090;"/><path d="M1105.97,291.41c-14.667,25.402 -5.95,57.934 19.453,72.6c25.403,14.666 57.934,5.95 72.601,-19.453c14.666,-25.403 5.949,-57.934 -19.454,-72.601c-25.403,-14.666 -57.934,-5.949 -72.6,19.454Z" style="fill:none;stroke:#fff;stroke-width:1.25px;"/><path d="M156.899,149.417c-14.666,25.403 -5.949,57.934 19.454,72.601c25.403,14.667 57.935,5.95 72.601,-19.453c14.666,-25.403 5.949,-57.934 -19.454,-72.601c-25.403,-14.666 -57.935,-5.95 -72.601,19.453Z" style="fill:none;stroke:#fff;stroke-width:1.25px;"/><path d="M82.88,277.622c-14.666,25.403 -5.949,57.934 19.454,72.601c25.403,14.666 57.935,5.95 72.601,-19.453c14.666,-25.403 5.949,-57.934 -19.454,-72.601c-25.403,-14.667 -57.935,-5.95 -72.601,19.453Z" style="fill:none;stroke:#fff;stroke-width:1.25px;"/><path d="M598.777,404.536c-14.666,25.403 -5.95,57.934 19.453,72.6c25.403,14.667 57.934,5.95 72.601,-19.453c14.666,-25.403 5.95,-57.934 -19.453,-72.601c-25.403,-14.666 -57.935,-5.949 -72.601,19.454Z" style="fill:none;stroke:#fff;stroke-width:3px;"/><path d="M594.607,156.641c-14.666,25.403 -5.95,57.934 19.453,72.6c25.402,14.666 57.933,5.95 72.6,-19.453c14.666,-25.403 5.95,-57.934 -19.453,-72.6c-25.403,-14.667 -57.933,-5.95 -72.6,19.453Z" style="fill:none;stroke:#fff;stroke-width:1.25px;"/><path d="M299.647,157.284c-14.666,25.403 -5.949,57.934 19.453,72.6c25.403,14.667 57.935,5.95 72.601,-19.453c14.666,-25.403 5.95,-57.934 -19.453,-72.6c-25.403,-14.667 -57.934,-5.95 -72.601,19.453Z" style="fill:none;stroke:#fff;stroke-width:1.25px;"/><path d="M958.293,292.066c-14.666,25.403 -5.949,57.934 19.454,72.601c25.403,14.666 57.934,5.949 72.6,-19.453c14.666,-25.403 5.95,-57.935 -19.453,-72.601c-25.403,-14.666 -57.934,-5.95 -72.601,19.453Z" style="fill:none;stroke:#fff;stroke-width:1.25px;"/><path d="M815.546,284.2c-14.666,25.403 -5.95,57.934 19.453,72.601c25.402,14.666 57.933,5.949 72.6,-19.454c14.666,-25.403 5.95,-57.934 -19.453,-72.6c-25.402,-14.666 -57.933,-5.95 -72.6,19.453Z" style="fill:none;stroke:#fff;stroke-width:1.25px;"/><text x="232.504px" y="93.322px" style="font-family:'Astro';font-size:108px;fill:#fff;">a</text><text x="457.693px" y="214.96px" style="font-family:'Astro';font-size:108px;fill:#fff;">e</text><text x="676.774px" y="344.799px" style="font-family:'Astro';font-size:108px;fill:#fff;">i</text><text x="900.799px" y="476.597px" style="font-family:'Astro';font-size:108px;fill:#fff;">f</text><text x="242.572px" y="337.257px" style="font-family:'Astro';font-size:108px;fill:#fff;">j</text><text x="17.559px" y="208.008px" style="font-family:'Astro';font-size:108px;fill:#fff;">d</text><text x="1113.41px" y="354.717px" style="font-family:'Astro';font-size:108px;fill:#fff;">c</text><text x="898.602px" y="225.37px" style="font-family:'Astro';font-size:108px;fill:#fff;">l</text><text x="671.025px" y="91.213px" style="font-family:'Astro';font-size:108px;fill:#fff;">k</text><text x="20.746px" y="444.373px" style="font-family:'Astro';font-size:108px;fill:#fff;">g</text><text x="463.301px" y="467.456px" style="font-family:'Astro';font-size:108px;fill:#fff;">b</text><text x="680.71px" y="595.396px" style="font-family:'Astro';font-size:108px;fill:#fff;">h</text><text x="178.782px" y="216.246px" style="font-family:'Astro';font-size:108px;fill:#fff;">7</text><text x="613.712px" y="467.692px" style="font-family:'Times-Bold', 'Times';font-weight:700;font-size:108px;fill:#fff;">4</text><text x="615.485px" y="220.75px" style="font-family:'Astro';font-size:108px;fill:#fff;">5</text><text x="832.661px" y="346.8px" style="font-family:'Astro';font-size:108px;fill:#fff;">6</text><text x="978.874px" y="353.999px" style="font-family:'Astro';font-size:108px;fill:#fff;">2</text><text x="319.192px" y="217.533px" style="font-family:'Astro';font-size:108px;fill:#fff;">1</text><text x="103.189px" y="339.422px" style="font-family:'Astro';font-size:108px;fill:#fff;">3</text><defs><radialGradient id="_Radial1" cx="0" cy="0" r="1" gradientUnits="userSpaceOnUse" gradientTransform="matrix(118.411,68.3649,-68.3649,118.411,203.227,171.946)"><stop offset="0" style="stop-color:#606;stop-opacity:1"/><stop offset="1" style="stop-color:#fff;stop-opacity:1"/></radialGradient><radialGradient id="_Radial2" cx="0" cy="0" r="1" gradientUnits="userSpaceOnUse" gradientTransform="matrix(118.411,68.3646,-68.3646,118.411,128.993,307.568)"><stop offset="0" style="stop-color:#090;stop-opacity:1"/><stop offset="1" style="stop-color:#000;stop-opacity:1"/></radialGradient><radialGradient id="_Radial3" cx="0" cy="0" r="1" gradientUnits="userSpaceOnUse" gradientTransform="matrix(121.135,69.9373,-69.9373,121.135,347.334,184.507)"><stop offset="0" style="stop-color:#c00;stop-opacity:1"/><stop offset="1" style="stop-color:#f93;stop-opacity:1"/></radialGradient><radialGradient id="_Radial4" cx="0" cy="0" r="1" gradientUnits="userSpaceOnUse" gradientTransform="matrix(121.135,69.9375,-69.9375,121.135,642.412,183.654)"><stop offset="0" style="stop-color:#fc0;stop-opacity:1"/><stop offset="1" style="stop-color:#036;stop-opacity:1"/></radialGradient><radialGradient id="_Radial5" cx="0" cy="0" r="1" gradientUnits="userSpaceOnUse" gradientTransform="matrix(121.135,69.9375,-69.9375,121.135,863.351,311.213)"><stop offset="0" style="stop-color:#f99;stop-opacity:1"/><stop offset="1" style="stop-color:#f00;stop-opacity:1"/></radialGradient><radialGradient id="_Radial6" cx="0" cy="0" r="1" gradientUnits="userSpaceOnUse" gradientTransform="matrix(121.136,69.9378,-69.9378,121.136,1002.93,317.528)"><stop offset="0" style="stop-color:#636;stop-opacity:1"/><stop offset="1" style="stop-color:#66f;stop-opacity:1"/></radialGradient></defs></svg>