<?xml version="1.0" encoding="UTF-8" standalone="no"?>
<!DOCTYPE svg PUBLIC "-//W3C//DTD SVG 1.1//EN" "http://www.w3.org/Graphics/SVG/1.1/DTD/svg11.dtd">
<svg width="100%" height="100%" viewBox="0 0 841 595" version="1.1" xmlns="http://www.w3.org/2000/svg" xmlns:xlink="http://www.w3.org/1999/xlink" xml:space="preserve" xmlns:serif="http://www.serif.com/" style="fill-rule:evenodd;clip-rule:evenodd;stroke-miterlimit:3.864;">
    <g id="Triangles-circles" serif:id="Triangles/circles">
        <g transform="matrix(91.1532,0,0,-91.1532,175.989,299.28)">
            <path d="M0.013,0.565L0.946,-0.99L-0.92,-0.99L0.013,0.565Z" style="fill:url(#_Radial1);fill-rule:nonzero;stroke:white;stroke-width:0.01px;"/>
        </g>
        <g transform="matrix(91.1528,0,0,-91.1528,178.337,479.699)">
            <path d="M-0.013,-0.565L0.92,0.99L-0.946,0.99L-0.013,-0.565Z" style="fill:url(#_Radial2);fill-rule:nonzero;stroke:white;stroke-width:0.01px;"/>
        </g>
        <g transform="matrix(93.2497,0,0,-93.2497,263.376,340.064)">
            <path d="M-0.013,-0.53L0.899,0.99L-0.925,0.99L-0.013,-0.53Z" style="fill:url(#_Radial3);fill-rule:nonzero;stroke:white;stroke-width:0.01px;"/>
        </g>
        <g transform="matrix(-0.866024,-0.500003,-0.500003,0.866024,548.816,299.399)">
            <path d="M203.17,221.328L266.439,221.328" style="fill:none;stroke:white;stroke-width:1px;"/>
        </g>
        <g transform="matrix(0.866024,0.500003,0.500003,-0.866024,-78.8336,509.824)">
            <path d="M87.888,189.692L151.157,189.692" style="fill:none;stroke:white;stroke-width:1px;"/>
        </g>
        <g transform="matrix(93.25,0,0,-93.25,433.455,155.45)">
            <path d="M-0.013,0.53L0.899,-0.99L-0.925,-0.99L-0.013,0.53Z" style="fill:url(#_Radial4);fill-rule:nonzero;stroke:white;stroke-width:0.01px;"/>
        </g>
        <g transform="matrix(97.584,0,0,-97.584,518.495,292.849)">
            <path d="M-0.012,0.462L0.859,-0.99L-0.883,-0.99L-0.012,0.462Z" style="fill:url(#_Radial5);fill-rule:nonzero;stroke:white;stroke-width:0.01px;"/>
        </g>
        <g transform="matrix(93.25,0,0,-93.25,603.534,155.45)">
            <path d="M-0.013,0.53L0.899,-0.99L-0.925,-0.99L-0.013,0.53Z" style="fill:url(#_Radial6);fill-rule:nonzero;stroke:white;stroke-width:0.01px;"/>
        </g>
        <g transform="matrix(93.2504,0,0,-93.2504,686.225,198.333)">
            <path d="M0.013,-0.53L0.925,0.99L-0.899,0.99L0.013,-0.53Z" style="fill:url(#_Radial7);fill-rule:nonzero;stroke:white;stroke-width:0.01px;"/>
        </g>
        <g transform="matrix(0.866031,0.499991,0.499991,-0.866031,-138.305,448.321)">
            <path d="M172.926,331.425L236.195,331.425" style="fill:none;stroke:white;stroke-width:1px;"/>
        </g>
        <g transform="matrix(1,0,0,1,0,183.979)">
            <ellipse cx="262.203" cy="205.51" rx="35.432" ry="35.432" style="fill:rgb(204,0,0);"/>
        </g>
        <g transform="matrix(-1,0,0,1,524.406,183.979)">
            <ellipse cx="262.203" cy="205.51" rx="35.432" ry="35.432" style="fill:none;stroke:white;stroke-width:0.83px;"/>
        </g>
        <g transform="matrix(1,0,0,1,0,183.979)">
            <circle cx="92.125" cy="205.51" r="35.432" style="fill:rgb(204,0,0);"/>
        </g>
        <g transform="matrix(-1,0,0,1,184.249,183.979)">
            <circle cx="92.125" cy="205.51" r="35.431" style="fill:none;stroke:white;stroke-width:0.83px;"/>
        </g>
        <g transform="matrix(0.866028,-0.499996,-0.499996,-0.866028,231.72,733.678)">
            <path d="M343.004,363.061L406.274,363.061" style="fill:none;stroke:white;stroke-width:1px;stroke-dasharray:3,3;"/>
        </g>
        <g transform="matrix(1,0,0,1,0,-99.485)">
            <ellipse cx="177.164" cy="347.243" rx="35.432" ry="35.432" style="fill:rgb(204,0,0);"/>
        </g>
        <g transform="matrix(-1,0,0,1,354.328,-99.485)">
            <ellipse cx="177.164" cy="347.243" rx="35.432" ry="35.432" style="fill:none;stroke:white;stroke-width:0.83px;"/>
        </g>
        <g transform="matrix(1.74782e-05,1,1,-1.74782e-05,-28.0941,-297.641)">
            <path d="M403.674,460.368L460.889,460.368" style="fill:none;stroke:white;stroke-width:1px;stroke-dasharray:1,1;"/>
        </g>
        <g transform="matrix(1,0,0,1,0,467.443)">
            <path d="M141.732,63.779C141.732,44.21 157.596,28.347 177.164,28.347C196.732,28.347 212.596,44.21 212.596,63.779C212.596,83.347 196.732,99.21 177.164,99.21C157.596,99.21 141.732,83.347 141.732,63.779" style="fill:rgb(204,0,0);"/>
        </g>
        <g transform="matrix(0,1,1,0,113.385,354.058)">
            <ellipse cx="177.164" cy="63.779" rx="35.432" ry="35.432" style="fill:none;stroke:white;stroke-width:0.83px;"/>
        </g>
        <g transform="matrix(1,0,0,1,0,-382.949)">
            <path d="M396.851,488.974C396.851,469.406 412.713,453.543 432.282,453.543C451.851,453.543 467.714,469.406 467.714,488.974C467.714,508.543 451.851,524.406 432.282,524.406C412.713,524.406 396.851,508.543 396.851,488.974" style="fill:rgb(102,102,255);"/>
        </g>
        <g transform="matrix(0,1,1,0,-56.692,-326.257)">
            <circle cx="432.283" cy="488.974" r="35.431" style="fill:none;stroke:white;stroke-width:0.83px;"/>
        </g>
        <g transform="matrix(1,0,0,1,0,-99.485)">
            <path d="M311.811,347.243C311.811,327.674 327.674,311.811 347.242,311.811C366.811,311.811 382.674,327.674 382.674,347.243C382.674,366.811 366.811,382.674 347.242,382.674C327.674,382.674 311.811,366.811 311.811,347.243" style="fill:rgb(102,102,255);"/>
        </g>
        <g transform="matrix(0,1,1,0,0,-99.485)">
            <circle cx="347.243" cy="347.243" r="35.432" style="fill:none;stroke:white;stroke-width:0.83px;"/>
        </g>
        <g transform="matrix(-0.866024,-0.500003,-0.500003,0.866024,1183.56,469.479)">
            <path d="M543.328,221.328L606.597,221.328" style="fill:none;stroke:white;stroke-width:2px;"/>
        </g>
        <g transform="matrix(1,0,0,1,0,183.979)">
            <path d="M396.851,205.51C396.851,185.942 412.713,170.079 432.282,170.079C451.851,170.079 467.714,185.942 467.714,205.51C467.714,225.08 451.851,240.942 432.282,240.942C412.713,240.942 396.851,225.08 396.851,205.51" style="fill:rgb(102,102,255);"/>
        </g>
        <g transform="matrix(0,1,1,0,226.772,-42.793)">
            <circle cx="432.283" cy="205.51" r="35.432" style="fill:none;stroke:white;stroke-width:0.83px;"/>
        </g>
        <g transform="matrix(1,0,0,1,0,183.979)">
            <path d="M566.93,205.51C566.93,185.942 582.792,170.079 602.36,170.079C621.93,170.079 637.792,185.942 637.792,205.51C637.792,225.08 621.93,240.942 602.36,240.942C582.792,240.942 566.93,225.08 566.93,205.51" style="fill:rgb(102,102,255);"/>
        </g>
        <g transform="matrix(0,1,1,0,396.851,-212.871)">
            <ellipse cx="602.361" cy="205.51" rx="35.432" ry="35.431" style="fill:none;stroke:white;stroke-width:0.83px;"/>
        </g>
        <g transform="matrix(0.866028,-0.499996,-0.499996,-0.866028,254.506,818.717)">
            <path d="M513.083,363.061L576.353,363.061" style="fill:none;stroke:white;stroke-width:1px;"/>
        </g>
        <g transform="matrix(1,0,0,1,0,-99.485)">
            <path d="M481.89,347.243C481.89,327.674 497.753,311.811 517.321,311.811C536.89,311.811 552.753,327.674 552.753,347.243C552.753,366.811 536.89,382.674 517.321,382.674C497.753,382.674 481.89,366.811 481.89,347.243" style="fill:rgb(0,153,0);"/>
        </g>
        <g transform="matrix(0,1,1,0,170.079,-269.564)">
            <circle cx="517.322" cy="347.243" r="35.432" style="fill:none;stroke:white;stroke-width:0.83px;"/>
        </g>
        <g transform="matrix(-1.76379e-05,-1,-1,1.76379e-05,1063,906.801)">
            <path d="M659.05,375.591L715.747,375.591" style="fill:none;stroke:white;stroke-width:1px;"/>
        </g>
        <g transform="matrix(1,0,0,1,0,-99.485)">
            <path d="M651.969,347.243C651.969,327.674 667.832,311.811 687.4,311.811C706.969,311.811 722.832,327.674 722.832,347.243C722.832,366.811 706.969,382.674 687.4,382.674C667.832,382.674 651.969,366.811 651.969,347.243" style="fill:rgb(0,153,0);"/>
        </g>
        <g transform="matrix(0,1,1,0,340.158,-439.643)">
            <circle cx="687.401" cy="347.242" r="35.432" style="fill:none;stroke:white;stroke-width:0.83px;"/>
        </g>
        <g transform="matrix(1,0,0,1,0,-382.949)">
            <path d="M566.93,488.974C566.93,469.406 582.792,453.543 602.36,453.543C621.93,453.543 637.792,469.406 637.792,488.974C637.792,508.543 621.93,524.406 602.36,524.406C582.792,524.406 566.93,508.543 566.93,488.974" style="fill:rgb(0,153,0);"/>
        </g>
        <g transform="matrix(0,1,1,0,113.387,-496.335)">
            <ellipse cx="602.361" cy="488.975" rx="35.431" ry="35.431" style="fill:none;stroke:white;stroke-width:0.83px;"/>
        </g>
        <g transform="matrix(1,0,0,1,0,-382.949)">
            <path d="M737.008,488.974C737.008,469.406 752.871,453.543 772.439,453.543C792.008,453.543 807.871,469.406 807.871,488.974C807.871,508.543 792.008,524.406 772.439,524.406C752.871,524.406 737.008,508.543 737.008,488.974" style="fill:rgb(0,153,0);"/>
        </g>
        <g transform="matrix(0,1,1,0,283.465,-666.414)">
            <circle cx="772.439" cy="488.975" r="35.431" style="fill:none;stroke:white;stroke-width:0.83px;"/>
        </g>
        <g transform="matrix(0,1,1,0,-77.4335,163.239)">
            <ellipse cx="177.164" cy="254.598" rx="35.432" ry="35.432" style="fill:none;stroke:white;stroke-width:0.83px;"/>
        </g>
        <g transform="matrix(0,1,1,0,21.2585,261.93)">
            <ellipse cx="177.164" cy="155.906" rx="35.432" ry="35.432" style="fill:none;stroke:white;stroke-width:0.83px;"/>
        </g>
        <g transform="matrix(0,1,1,0,262.724,-176.919)">
            <circle cx="517.322" cy="254.597" r="35.431" style="fill:none;stroke:white;stroke-width:2px;"/>
        </g>
        <g transform="matrix(0,1,1,0,35.9525,-233.611)">
            <ellipse cx="432.282" cy="396.329" rx="35.432" ry="35.431" style="fill:none;stroke:white;stroke-width:0.83px;"/>
        </g>
        <g transform="matrix(0,1,1,0,-35.437,35.16)">
            <circle cx="262.202" cy="297.639" r="35.432" style="fill:none;stroke:white;stroke-width:0.83px;"/>
        </g>
        <g transform="matrix(0,1,1,0,248.028,-531.769)">
            <circle cx="687.398" cy="439.371" r="35.432" style="fill:none;stroke:white;stroke-width:0.83px;"/>
        </g>
        <g transform="matrix(0,1,1,0,206.032,-403.69)">
            <ellipse cx="602.361" cy="396.329" rx="35.432" ry="35.431" style="fill:none;stroke:white;stroke-width:0.83px;"/>
        </g>
    </g>
    <g id="Signs">
        <text x="151.081px" y="272.773px" style="font-family:'Astro';font-size:72px;fill:white;">a</text>
        <text x="324.338px" y="271.275px" style="font-family:'Astro';font-size:72px;fill:white;">e</text>
        <text x="493.906px" y="272.473px" style="font-family:'Astro';font-size:72px;fill:white;">i</text>
        <text x="664.535px" y="273.484px" style="font-family:'Astro';font-size:72px;fill:white;">f</text>
        <text x="66.451px" y="412.451px" style="font-family:'Astro';font-size:72px;fill:white;">d</text>
        <text x="236.562px" y="414.112px" style="font-family:'Astro';font-size:72px;fill:white;">j</text>
        <text x="410.462px" y="413.611px" style="font-family:'Astro';font-size:72px;fill:white;">b</text>
        <text x="577.635px" y="414.078px" style="font-family:'Astro';font-size:72px;fill:white;">h</text>
        <text x="407.481px" y="124.571px" style="font-family:'Astro';font-size:72px;fill:white;">k</text>
        <text x="580.501px" y="130.354px" style="font-family:'Astro';font-size:72px;fill:white;">l</text>
        <text x="746.453px" y="130.455px" style="font-family:'Astro';font-size:72px;fill:white;">c</text>
        <text x="150.681px" y="546.18px" style="font-family:'Astro';font-size:72px;fill:white;">g</text>
    </g>
    <g id="Rays">
        <text x="158.399px" y="364.996px" style="font-family:'Astro';font-size:72px;fill:white;">7</text>
        <text x="496.321px" y="362.584px" style="font-family:'Times-Bold', 'Times';font-size:72px;fill:white;">4</text>
        <text x="413.398px" y="222.394px" style="font-family:'Astro';font-size:72px;fill:white;">5</text>
        <text x="581.667px" y="222.277px" style="font-family:'Astro';font-size:72px;fill:white;">6</text>
        <text x="668.482px" y="177.696px" style="font-family:'Astro';font-size:72px;fill:white;">2</text>
        <g>
            <text x="244.378px" y="320.344px" style="font-family:'Astro';font-size:72px;fill:white;">1</text>
            <text x="159.827px" y="462.551px" style="font-family:'Astro';font-size:72px;fill:white;">3</text>
        </g>
    </g>
    <defs>
        <radialGradient id="_Radial1" cx="0" cy="0" r="1" gradientUnits="userSpaceOnUse" gradientTransform="matrix(1,0,0,-1,0,-0.424413)"><stop offset="0" style="stop-color:rgb(102,0,102);stop-opacity:1"/><stop offset="1" style="stop-color:white;stop-opacity:1"/></radialGradient>
        <radialGradient id="_Radial2" cx="0" cy="0" r="1" gradientUnits="userSpaceOnUse" gradientTransform="matrix(1,0,0,-1,0,0.424415)"><stop offset="0" style="stop-color:rgb(0,153,0);stop-opacity:1"/><stop offset="1" style="stop-color:black;stop-opacity:1"/></radialGradient>
        <radialGradient id="_Radial3" cx="0" cy="0" r="1" gradientUnits="userSpaceOnUse" gradientTransform="matrix(1,0,0,-1,0,0.459849)"><stop offset="0" style="stop-color:rgb(204,0,0);stop-opacity:1"/><stop offset="1" style="stop-color:rgb(255,153,51);stop-opacity:1"/></radialGradient>
        <radialGradient id="_Radial4" cx="0" cy="0" r="1" gradientUnits="userSpaceOnUse" gradientTransform="matrix(1,0,0,-1,0,-0.459851)"><stop offset="0" style="stop-color:rgb(255,204,0);stop-opacity:1"/><stop offset="1" style="stop-color:rgb(0,51,102);stop-opacity:1"/></radialGradient>
        <radialGradient id="_Radial5" cx="0" cy="0" r="1" gradientUnits="userSpaceOnUse" gradientTransform="matrix(1,0,0,-1,0,-0.528262)"><stop offset="0" style="stop-color:rgb(255,255,51);stop-opacity:1"/><stop offset="1" style="stop-color:rgb(255,255,153);stop-opacity:1"/></radialGradient>
        <radialGradient id="_Radial6" cx="0" cy="0" r="1" gradientUnits="userSpaceOnUse" gradientTransform="matrix(1,0,0,-1,0,-0.459851)"><stop offset="0" style="stop-color:rgb(255,153,153);stop-opacity:1"/><stop offset="1" style="stop-color:rgb(255,0,0);stop-opacity:1"/></radialGradient>
        <radialGradient id="_Radial7" cx="0" cy="0" r="1" gradientUnits="userSpaceOnUse" gradientTransform="matrix(1,0,0,-1,0,0.459855)"><stop offset="0" style="stop-color:rgb(102,51,102);stop-opacity:1"/><stop offset="1" style="stop-color:rgb(102,102,255);stop-opacity:1"/></radialGradient>
    </defs>
</svg>
