<?xml version="1.0" encoding="UTF-8" standalone="no"?><!DOCTYPE svg PUBLIC "-//W3C//DTD SVG 1.1//EN" "http://www.w3.org/Graphics/SVG/1.1/DTD/svg11.dtd"><svg width="100%" height="100%" viewBox="0 0 615 1208" version="1.1" xmlns="http://www.w3.org/2000/svg" xmlns:xlink="http://www.w3.org/1999/xlink" xml:space="preserve" xmlns:serif="http://www.serif.com/" style="fill-rule:evenodd;clip-rule:evenodd;stroke-miterlimit:3.864;"><path d="M55.642,935.228l247.892,-4.17l-127.557,220.936l-120.335,-216.766Z" style="fill:url(#_Radial1);fill-rule:nonzero;stroke:#fff;stroke-width:1.46px;"/><path d="M423.872,1147.83l-120.337,-216.767l-127.557,220.935l247.894,-4.168Z" style="fill:url(#_Radial2);fill-rule:nonzero;stroke:#fff;stroke-width:1.46px;"/><path d="M303.535,931.057l-120.336,-216.766l-127.557,220.936l247.893,-4.17Z" style="fill:url(#_Radial3);fill-rule:nonzero;stroke:#fff;stroke-width:1.46px;"/><path d="M303.534,931.058l-82.19,47.452" style="fill:none;fill-rule:nonzero;stroke:#fff;stroke-width:1.5px;"/><path d="M175.979,1151.99l82.19,-47.452" style="fill:none;fill-rule:nonzero;stroke:#fff;stroke-width:1.5px;"/><path d="M62.864,497.52l247.893,-4.169l-127.557,220.937l-120.336,-216.768Z" style="fill:url(#_Radial4);fill-rule:nonzero;stroke:#fff;stroke-width:1.46px;"/><path d="M310.759,493.351l247.894,-4.171l-127.558,220.937l-120.336,-216.766Z" style="fill:#ffe82a;fill-rule:nonzero;stroke:#fff;stroke-width:1.46px;"/><path d="M190.422,276.582l247.895,-4.17l-127.558,220.937l-120.337,-216.767Z" style="fill:url(#_Radial5);fill-rule:nonzero;stroke:#fff;stroke-width:1.46px;"/><path d="M438.319,272.412l-120.336,-216.768l-127.559,220.938l247.895,-4.17Z" style="fill:url(#_Radial6);fill-rule:nonzero;stroke:#fff;stroke-width:1.46px;"/><path d="M55.642,935.227l82.189,-47.453" style="fill:none;fill-rule:nonzero;stroke:#fff;stroke-width:1.5px;"/><path d="M257.509,904.483c14.676,-25.42 47.181,-34.131 72.601,-19.455c25.421,14.677 34.129,47.182 19.453,72.602c-14.676,25.419 -47.18,34.13 -72.601,19.453c-25.42,-14.676 -34.129,-47.181 -19.453,-72.6" style="fill:#c00;"/><path d="M257.509,904.483c-14.666,25.403 -5.95,57.934 19.453,72.601c25.403,14.666 57.935,5.949 72.601,-19.454c14.667,-25.403 5.95,-57.935 -19.453,-72.601c-25.403,-14.667 -57.934,-5.95 -72.601,19.454Z" style="fill:none;stroke:#fff;stroke-width:1.25px;"/><path d="M129.951,1125.42c14.676,-25.419 47.18,-34.129 72.599,-19.453c25.421,14.677 34.131,47.181 19.455,72.601c-14.676,25.419 -47.181,34.13 -72.602,19.453c-25.419,-14.676 -34.128,-47.181 -19.452,-72.601" style="fill:#c00;"/><path d="M129.951,1125.42c-14.667,25.403 -5.95,57.934 19.453,72.601c25.403,14.666 57.934,5.949 72.6,-19.454c14.667,-25.403 5.95,-57.934 -19.453,-72.6c-25.403,-14.667 -57.934,-5.95 -72.6,19.453Z" style="fill:none;stroke:#fff;stroke-width:1.25px;"/><path d="M183.2,714.288l0,-94.906" style="fill:none;fill-rule:nonzero;stroke:#fff;stroke-width:1.5px;stroke-dasharray:4.5,4.5;"/><path d="M9.615,908.653c14.676,-25.42 47.181,-34.131 72.601,-19.454c25.42,14.676 34.129,47.181 19.453,72.601c-14.676,25.419 -47.181,34.13 -72.601,19.454c-25.42,-14.677 -34.129,-47.182 -19.453,-72.601" style="fill:#c00;"/><path d="M9.615,908.653c-14.667,25.403 -5.95,57.934 19.453,72.601c25.403,14.666 57.934,5.949 72.601,-19.454c14.666,-25.403 5.95,-57.935 -19.453,-72.601c-25.403,-14.667 -57.934,-5.95 -72.601,19.454Z" style="fill:none;stroke:#fff;stroke-width:1.25px;"/><path d="M62.864,497.52l74.324,42.909" style="fill:none;fill-rule:nonzero;stroke:#fff;stroke-width:1.5px;stroke-dasharray:1.5,1.5;"/><path d="M397.299,1193.85c-25.421,-14.677 -34.13,-47.182 -19.454,-72.601c14.676,-25.42 47.181,-34.131 72.602,-19.454c25.42,14.676 34.128,47.181 19.452,72.601c-14.676,25.419 -47.18,34.13 -72.6,19.454" style="fill:#c00;"/><path d="M397.298,1193.85c25.403,14.666 57.935,5.949 72.601,-19.454c14.667,-25.403 5.95,-57.935 -19.453,-72.601c-25.403,-14.667 -57.934,-5.95 -72.601,19.454c-14.666,25.403 -5.95,57.934 19.453,72.601Z" style="fill:none;stroke:#fff;stroke-width:1.25px;"/><path d="M36.291,543.545c-25.419,-14.676 -34.13,-47.179 -19.453,-72.599c14.677,-25.421 47.181,-34.131 72.6,-19.455c25.421,14.677 34.131,47.181 19.454,72.602c-14.677,25.421 -47.18,34.129 -72.601,19.452" style="fill:#66f;"/><path d="M36.292,543.545c25.403,14.667 57.934,5.95 72.6,-19.453c14.667,-25.403 5.95,-57.934 -19.453,-72.6c-25.403,-14.667 -57.934,-5.95 -72.6,19.453c-14.667,25.403 -5.95,57.934 19.453,72.6Z" style="fill:none;stroke:#fff;stroke-width:1.25px;"/><path d="M156.628,760.315c-25.421,-14.677 -34.131,-47.181 -19.455,-72.6c14.677,-25.421 47.181,-34.131 72.602,-19.454c25.42,14.676 34.129,47.18 19.452,72.601c-14.676,25.42 -47.18,34.129 -72.599,19.453" style="fill:#66f;"/><path d="M156.627,760.315c25.403,14.666 57.934,5.949 72.601,-19.454c14.666,-25.403 5.949,-57.934 -19.454,-72.6c-25.403,-14.667 -57.934,-5.95 -72.6,19.453c-14.667,25.403 -5.95,57.934 19.453,72.601Z" style="fill:none;stroke:#fff;stroke-width:1.25px;"/><path d="M558.653,489.18l-82.19,47.452" style="fill:none;fill-rule:nonzero;stroke:#fff;stroke-width:3px;"/><path d="M404.522,756.143c-25.42,-14.676 -34.13,-47.179 -19.453,-72.599c14.676,-25.421 47.18,-34.131 72.6,-19.455c25.422,14.678 34.13,47.181 19.453,72.602c-14.676,25.421 -47.178,34.13 -72.6,19.452" style="fill:#66f;"/><path d="M404.522,756.143c25.403,14.667 57.934,5.95 72.601,-19.453c14.666,-25.403 5.949,-57.934 -19.453,-72.6c-25.403,-14.667 -57.935,-5.95 -72.601,19.453c-14.666,25.403 -5.95,57.934 19.453,72.6Z" style="fill:none;stroke:#fff;stroke-width:1.25px;"/><path d="M532.081,535.204c-25.42,-14.676 -34.13,-47.179 -19.454,-72.598c14.678,-25.422 47.181,-34.131 72.6,-19.455c25.423,14.678 34.131,47.18 19.454,72.602c-14.676,25.42 -47.178,34.128 -72.6,19.451" style="fill:#66f;"/><path d="M532.082,535.204c25.402,14.667 57.934,5.95 72.6,-19.452c14.666,-25.403 5.949,-57.934 -19.454,-72.6c-25.403,-14.667 -57.934,-5.95 -72.6,19.452c-14.666,25.403 -5.949,57.934 19.454,72.6Z" style="fill:none;stroke:#fff;stroke-width:1.25px;"/><path d="M310.759,493.349l0,-94.906" style="fill:none;fill-rule:nonzero;stroke:#fff;stroke-width:1.5px;"/><path d="M284.187,539.376c-25.421,-14.677 -34.13,-47.181 -19.454,-72.6c14.676,-25.421 47.18,-34.131 72.601,-19.454c25.42,14.676 34.129,47.18 19.452,72.601c-14.676,25.419 -47.179,34.129 -72.599,19.453" style="fill:#090;"/><path d="M284.186,539.375c25.403,14.667 57.934,5.95 72.601,-19.453c14.666,-25.403 5.949,-57.934 -19.453,-72.6c-25.403,-14.667 -57.935,-5.95 -72.601,19.453c-14.666,25.403 -5.95,57.934 19.453,72.6Z" style="fill:none;stroke:#fff;stroke-width:1.25px;"/><path d="M438.317,272.411l-73.651,-42.521" style="fill:none;fill-rule:nonzero;stroke:#fff;stroke-width:1.5px;"/><path d="M411.746,318.437c-25.421,-14.677 -34.13,-47.181 -19.454,-72.6c14.677,-25.421 47.181,-34.131 72.601,-19.454c25.42,14.676 34.129,47.18 19.453,72.601c-14.676,25.419 -47.18,34.129 -72.6,19.453" style="fill:#090;"/><path d="M411.746,318.436c25.402,14.667 57.934,5.95 72.6,-19.453c14.666,-25.403 5.95,-57.934 -19.453,-72.6c-25.403,-14.667 -57.934,-5.95 -72.601,19.453c-14.666,25.403 -5.949,57.934 19.454,72.6Z" style="fill:none;stroke:#fff;stroke-width:1.25px;"/><path d="M163.85,322.606c-25.419,-14.676 -34.129,-47.179 -19.453,-72.598c14.677,-25.422 47.18,-34.131 72.6,-19.455c25.421,14.677 34.131,47.18 19.453,72.602c-14.676,25.42 -47.179,34.128 -72.6,19.451" style="fill:#090;"/><path d="M163.851,322.606c25.403,14.667 57.934,5.95 72.6,-19.452c14.666,-25.403 5.949,-57.934 -19.453,-72.6c-25.403,-14.667 -57.934,-5.95 -72.601,19.452c-14.666,25.403 -5.949,57.934 19.454,72.6Z" style="fill:none;stroke:#fff;stroke-width:1.25px;"/><path d="M291.409,101.668c-25.42,-14.676 -34.129,-47.18 -19.453,-72.599c14.677,-25.421 47.181,-34.131 72.6,-19.455c25.421,14.677 34.13,47.181 19.454,72.602c-14.676,25.419 -47.18,34.129 -72.601,19.452" style="fill:#090;"/><path d="M291.41,101.668c25.402,14.667 57.934,5.95 72.6,-19.453c14.666,-25.403 5.95,-57.934 -19.453,-72.6c-25.403,-14.667 -57.934,-5.95 -72.601,19.453c-14.666,25.403 -5.949,57.934 19.454,72.6Z" style="fill:none;stroke:#fff;stroke-width:1.25px;"/><path d="M149.417,1050.74c25.403,14.667 57.934,5.95 72.601,-19.453c14.667,-25.404 5.95,-57.935 -19.453,-72.602c-25.403,-14.666 -57.934,-5.949 -72.601,19.454c-14.666,25.404 -5.95,57.935 19.453,72.601Z" style="fill:none;stroke:#fff;stroke-width:1.25px;"/><path d="M277.622,1124.76c25.403,14.667 57.934,5.95 72.601,-19.453c14.666,-25.404 5.95,-57.935 -19.453,-72.602c-25.403,-14.666 -57.934,-5.949 -72.601,19.454c-14.667,25.404 -5.95,57.935 19.453,72.601Z" style="fill:none;stroke:#fff;stroke-width:1.25px;"/><path d="M404.536,608.859c25.403,14.667 57.934,5.95 72.6,-19.453c14.667,-25.403 5.95,-57.934 -19.453,-72.601c-25.403,-14.666 -57.934,-5.949 -72.601,19.454c-14.666,25.403 -5.949,57.934 19.454,72.6Z" style="fill:none;stroke:#fff;stroke-width:3px;"/><path d="M156.641,613.029c25.403,14.667 57.934,5.95 72.6,-19.452c14.666,-25.403 5.95,-57.934 -19.453,-72.6c-25.403,-14.667 -57.934,-5.95 -72.6,19.452c-14.667,25.403 -5.95,57.934 19.453,72.6Z" style="fill:none;stroke:#fff;stroke-width:1.25px;"/><path d="M157.284,907.989c25.403,14.666 57.934,5.95 72.6,-19.453c14.667,-25.403 5.95,-57.934 -19.453,-72.601c-25.403,-14.666 -57.934,-5.949 -72.6,19.454c-14.667,25.403 -5.95,57.934 19.453,72.6Z" style="fill:none;stroke:#fff;stroke-width:1.25px;"/><path d="M292.066,249.343c25.403,14.666 57.934,5.95 72.601,-19.453c14.666,-25.403 5.949,-57.934 -19.453,-72.601c-25.403,-14.666 -57.935,-5.949 -72.601,19.453c-14.666,25.403 -5.95,57.935 19.453,72.601Z" style="fill:none;stroke:#fff;stroke-width:1.25px;"/><path d="M284.2,392.09c25.403,14.666 57.934,5.95 72.601,-19.453c14.666,-25.402 5.949,-57.933 -19.454,-72.599c-25.403,-14.667 -57.934,-5.95 -72.6,19.452c-14.666,25.403 -5.95,57.934 19.453,72.6Z" style="fill:none;stroke:#fff;stroke-width:1.25px;"/><text x="16.481px" y="971.694px" style="font-family:'Astro';font-size:108px;fill:#fff;">a</text><text x="146.946px" y="744.053px" style="font-family:'Astro';font-size:108px;fill:#fff;">e</text><text x="273.498px" y="528.956px" style="font-family:'Astro';font-size:108px;fill:#fff;">i</text><text x="403.272px" y="310.406px" style="font-family:'Astro';font-size:108px;fill:#fff;">f</text><text x="137.126px" y="1184.86px" style="font-family:'Astro';font-size:108px;fill:#fff;">d</text><text x="279.096px" y="90.915px" style="font-family:'Astro';font-size:108px;fill:#fff;">c</text><text x="157.164px" y="312.048px" style="font-family:'Astro';font-size:108px;fill:#fff;">l</text><text x="25.557px" y="524.176px" style="font-family:'Astro';font-size:108px;fill:#fff;">k</text><text x="385.198px" y="1167.11px" style="font-family:'Astro';font-size:108px;fill:#fff;">g</text><text x="267.172px" y="967.546px" style="font-family:'Astro';font-size:108px;fill:#fff;">j</text><text x="397.204px" y="744.891px" style="font-family:'Astro';font-size:108px;fill:#fff;">b</text><text x="521.948px" y="524.882px" style="font-family:'Astro';font-size:108px;fill:#fff;">h</text><text x="149.703px" y="1042.77px" style="font-family:'Astro';font-size:108px;fill:#fff;">7</text><text x="402.711px" y="597.663px" style="font-family:'Times-Bold', 'Times';font-weight:700;font-size:108px;fill:#fff;">4</text><text x="155.337px" y="603.974px" style="font-family:'Astro';font-size:108px;fill:#fff;">5</text><text x="281.727px" y="380.797px" style="font-family:'Astro';font-size:108px;fill:#fff;">6</text><text x="291.926px" y="237.585px" style="font-family:'Astro';font-size:108px;fill:#fff;">2</text><text x="157.52px" y="895.024px" style="font-family:'Astro';font-size:108px;fill:#fff;">1</text><text x="279.537px" y="1113.83px" style="font-family:'Astro';font-size:108px;fill:#fff;">3</text><defs><radialGradient id="_Radial1" cx="0" cy="0" r="1" gradientUnits="userSpaceOnUse" gradientTransform="matrix(68.3649,-118.411,118.411,68.3649,171.946,1004.41)"><stop offset="0" style="stop-color:#606;stop-opacity:1"/><stop offset="1" style="stop-color:#fff;stop-opacity:1"/></radialGradient><radialGradient id="_Radial2" cx="0" cy="0" r="1" gradientUnits="userSpaceOnUse" gradientTransform="matrix(68.3646,-118.411,118.411,68.3646,307.568,1078.64)"><stop offset="0" style="stop-color:#090;stop-opacity:1"/><stop offset="1" style="stop-color:#000;stop-opacity:1"/></radialGradient><radialGradient id="_Radial3" cx="0" cy="0" r="1" gradientUnits="userSpaceOnUse" gradientTransform="matrix(69.9373,-121.135,121.135,69.9373,184.507,860.302)"><stop offset="0" style="stop-color:#c00;stop-opacity:1"/><stop offset="1" style="stop-color:#f93;stop-opacity:1"/></radialGradient><radialGradient id="_Radial4" cx="0" cy="0" r="1" gradientUnits="userSpaceOnUse" gradientTransform="matrix(69.9375,-121.135,121.135,69.9375,183.654,565.225)"><stop offset="0" style="stop-color:#fc0;stop-opacity:1"/><stop offset="1" style="stop-color:#036;stop-opacity:1"/></radialGradient><radialGradient id="_Radial5" cx="0" cy="0" r="1" gradientUnits="userSpaceOnUse" gradientTransform="matrix(69.9375,-121.135,121.135,69.9375,311.213,344.286)"><stop offset="0" style="stop-color:#f99;stop-opacity:1"/><stop offset="1" style="stop-color:#f00;stop-opacity:1"/></radialGradient><radialGradient id="_Radial6" cx="0" cy="0" r="1" gradientUnits="userSpaceOnUse" gradientTransform="matrix(69.9378,-121.136,121.136,69.9378,317.528,204.707)"><stop offset="0" style="stop-color:#636;stop-opacity:1"/><stop offset="1" style="stop-color:#66f;stop-opacity:1"/></radialGradient></defs></svg>