<svg viewBox="95 95 805 805"
     xmlns="http://www.w3.org/2000/svg">

<title>12</title>
<desc></desc>

<circle cx="500" cy="500" r="400" fill="none" stroke="black" />


<!-- 12 -->
<polygon fill="none" stroke="black" 
        points="500,100 300,154 154,300 100,500 154,700 300,846 
                500,900 700,846 846,700 900,500 846,300 700,154" />

<!--  1 x 6 (skip 1) -->
<polygon fill="none" stroke="black" 
        points="500,100 154,300 154,700 500,900 846,700 846,300" />

<!--  3 x 4 (skip 2) -->
<polygon fill="none" stroke="black" 
        points="500,100 100,500 500,900 900,500" />
<polygon fill="none" stroke="black" 
        points="300,154 154,700 700,846 846,300" />
<polygon fill="none" stroke="black" 
        points="154,300 300,846 846,700 700,154" />

<!-- 4 x 3 (skip 3) -->
<polygon fill="none" stroke="black" 
        points="500,100 154,700 846,700" />
<polygon fill="none" stroke="black" 
        points="154,300 500,900 846,300" />
<polygon fill="none" stroke="black" 
        points="300,154 300,846 900,500" />
<polygon fill="none" stroke="black" 
        points="100,500 700,846 700,154" />

<!-- 12 star (skip 4) -->
<polygon fill="none" stroke="black" 
        points="500,100 300,846 846,300 100,500 846,700 300,154 
                500,900 700,154 154,700 900,500 154,300 700,846" />

<!-- 12 star (skip 5) -->
<!-- <line fill="none" stroke="black" x1="500" y1="100" x2="500" y2="900" />
<line fill="none" stroke="black" x1="300" y1="154" x2="700" y2="846" />
<line fill="none" stroke="black" x1="154" y1="300" x2="846" y2="700" />
<line fill="none" stroke="black" x1="100" y1="500" x2="900" y2="500" />
<line fill="none" stroke="black" x1="154" y1="700" x2="846" y2="300" />
<line fill="none" stroke="black" x1="300" y1="846" x2="700" y2="154" /> -->

<line fill="none" stroke="green" stroke-width="4" 
      x1="500" y1="100" x2="300" y2="154" />
<line fill="none" stroke="green" stroke-width="4" 
      x1="500" y1="100" x2="300" y2="846" />
<line fill="none" stroke="green" stroke-width="4" 
      x1="500" y1="100" x2="700" y2="846" />
<line fill="none" stroke="green" stroke-width="4" 
      x1="500" y1="100" x2="700" y2="154" />

</svg>