<svg viewBox="95 95 810 810"
     xmlns="http://www.w3.org/2000/svg">

<title>Hendecile</title>
<desc></desc>

<circle cx="500" cy="500" r="400" fill="none" stroke="black" />

<!-- 11 -->
<polygon fill="none" stroke="black" 
        points="500,100 284,163 136,334 104,557 198,762 387,884 
                613,884 802,762 896,557 864,334 716,163" />

<!-- 11 star (skip 1) -->
<polygon fill="none" stroke="black" 
        points="500,100 136,334 198,762 613,884 896,557 716,163
                284,163 104,557 387,884 802,762 864,334" />

<!-- 11 star (skip 2) -->
<polygon fill="none" stroke="black" 
        points="500,100 104,557 613,884 864,334 284,163 198,762
                802,762 716,163 136,334 387,884 896,557" />

<!-- 11 star (skip 3) -->
<polygon fill="none" stroke="black" 
        points="500,100 198,762 896,557 284,163 387,884 864,334
                136,334 613,884 716,163 104,557 802,762" />

<!-- 11 star (skip 4) -->
<polygon fill="none" stroke="black" 
        points="500,100 387,884 716,163 198,762 864,334 104,557
                896,557 136,334 802,762 284,163 613,884" />

<line fill="none" stroke="blue" stroke-width="4" 
      x1="500" y1="100" x2="284" y2="163" />
<line fill="none" stroke="blue" stroke-width="4" 
      x1="500" y1="100" x2="136" y2="334" />
<line fill="none" stroke="blue" stroke-width="4" 
      x1="500" y1="100" x2="104" y2="557" />
<line fill="none" stroke="blue" stroke-width="4" 
      x1="500" y1="100" x2="198" y2="762" />
<line fill="none" stroke="blue" stroke-width="4" 
      x1="500" y1="100" x2="387" y2="884" />
<line fill="none" stroke="blue" stroke-width="4" 
      x1="500" y1="100" x2="613" y2="884" />
<line fill="none" stroke="blue" stroke-width="4" 
      x1="500" y1="100" x2="802" y2="762" />
<line fill="none" stroke="blue" stroke-width="4" 
      x1="500" y1="100" x2="896" y2="557" />
<line fill="none" stroke="blue" stroke-width="4" 
      x1="500" y1="100" x2="864" y2="334" />
<line fill="none" stroke="blue" stroke-width="4" 
      x1="500" y1="100" x2="716" y2="163" />

</svg>