<svg viewBox="95 95 805 805"
     xmlns="http://www.w3.org/2000/svg">

<title>Octile</title>
<desc></desc>

<circle cx="500" cy="500" r="400" fill="none" stroke="black" />

<!-- 8 -->
<polygon fill="none" stroke="black" 
        points="500,100 217,217 100,500 217,783 
                500,900 783,783 900,500 783,217" />

<!-- 2 x 4 (skip 1) -->
<polygon fill="none" stroke="black"
        points="500,100 100,500 500,900 900,500" />
<polygon fill="none" stroke="black"
        points="217,217 217,783 783,783 783,217" />

<!-- 8 star (skip 2) -->
<polygon fill="none" stroke="black"
        points="500,100 217,783 900,500 217,217 
                500,900 783,217 100,500 783,783" />

<line fill="none" stroke="blue" stroke-width="4" 
      x1="500" y1="100" x2="217" y2="217" />
<line fill="none" stroke="blue" stroke-width="4" 
      x1="500" y1="100" x2="100" y2="500" />
<line fill="none" stroke="blue" stroke-width="4" 
      x1="500" y1="100" x2="217" y2="783" />
<line fill="none" stroke="blue" stroke-width="4" 
      x1="500" y1="100" x2="783" y2="783" />
<line fill="none" stroke="blue" stroke-width="4" 
      x1="500" y1="100" x2="900" y2="500" />
<line fill="none" stroke="blue" stroke-width="4" 
      x1="500" y1="100" x2="783" y2="217" />

</svg>