<svg viewBox="0 0 1000 1000"
     xmlns="http://www.w3.org/2000/svg">

<title>Septile</title>
<desc></desc>

<circle cx="500" cy="500" r="400" fill="none" stroke="black" />

<!-- 7 -->
<polygon fill="none" stroke="black" 
        points="500,100 187,251 110,589 326,860 674,860 890,589 813,251" />

<!-- 7 star (skip 1) -->
<polygon fill="none" stroke="black" 
        points="500,100 110,589 674,860 813,251 187,251 326,860 890,589" />

<!-- 7 star (skip 2) -->
<polygon fill="none" stroke="black" 
        points="500,100 326,860 813,251 110,589 890,589 187,251 674,860" />

<line fill="none" stroke="red" stroke-width="4" 
      x1="500" y1="100" x2="187" y2="251" />
<line fill="none" stroke="red" stroke-width="4" 
      x1="500" y1="100" x2="110" y2="589" />
<line fill="none" stroke="red" stroke-width="4" 
      x1="500" y1="100" x2="326" y2="860" />
<line fill="none" stroke="red" stroke-width="4" 
      x1="500" y1="100" x2="674" y2="860" />
<line fill="none" stroke="red" stroke-width="4" 
      x1="500" y1="100" x2="890" y2="589" />
<line fill="none" stroke="red" stroke-width="4" 
      x1="500" y1="100" x2="813" y2="251" />

</svg>